<svg width="21" height="20" viewBox="0 0 21 20" fill="none" xmlns="http://www.w3.org/2000/svg">
<path fill-rule="evenodd" clip-rule="evenodd" d="M18.9 17.009C18.9 17.56 18.382 18 17.803 18H14.653C14.5215 18.0031 14.3906 17.9797 14.2683 17.9311C14.146 17.8826 14.0348 17.8099 13.9412 17.7174C13.8476 17.6249 13.7735 17.5145 13.7235 17.3928C13.6735 17.2711 13.6485 17.1406 13.65 17.009V14.009C13.648 13.8764 13.6725 13.7448 13.7221 13.6219C13.7718 13.499 13.8455 13.3872 13.9389 13.2932C14.0324 13.1992 14.1437 13.1248 14.2663 13.0744C14.389 13.0241 14.5204 12.9988 14.653 13H17.803C18.383 13 18.9 13.458 18.9 14.009V17.009ZM17.803 11H14.653C12.913 11 11.55 12.352 11.55 14.009V17.009C11.55 18.666 12.913 20 14.653 20H17.803C19.543 20 21 18.666 21 17.009V14.009C21 12.352 19.543 11 17.803 11ZM7.35 17.009C7.35 17.56 6.832 18 6.253 18H3.103C2.97145 18.0031 2.84063 17.9797 2.71833 17.9311C2.59603 17.8826 2.48476 17.8099 2.39115 17.7174C2.29755 17.6249 2.22353 17.5145 2.17351 17.3928C2.12349 17.2711 2.09849 17.1406 2.1 17.009V14.009C2.09799 13.8764 2.12252 13.7448 2.17214 13.6219C2.22176 13.499 2.29547 13.3872 2.38893 13.2932C2.48239 13.1992 2.59371 13.1248 2.71634 13.0744C2.83897 13.0241 2.97044 12.9988 3.103 13H6.253C6.833 13 7.35 13.458 7.35 14.009V17.009ZM6.253 11H3.103C1.363 11 0 12.352 0 14.009V17.009C0 18.666 1.363 20 3.103 20H6.253C7.993 20 9.45 18.666 9.45 17.009V14.009C9.45 12.352 7.993 11 6.253 11ZM18.9 6.009C18.9 6.56 18.382 7 17.803 7H14.653C14.5215 7.0031 14.3906 6.97967 14.2683 6.93112C14.146 6.88256 14.0348 6.80988 13.9412 6.71739C13.8476 6.62491 13.7735 6.51452 13.7235 6.39282C13.6735 6.27111 13.6485 6.14058 13.65 6.009V3.009C13.648 2.87645 13.6725 2.74483 13.7221 2.6219C13.7718 2.49897 13.8455 2.38721 13.9389 2.29319C14.0324 2.19918 14.1437 2.1248 14.2663 2.07445C14.389 2.0241 14.5204 1.99878 14.653 2H17.803C18.383 2 18.9 2.458 18.9 3.009V6.009ZM17.803 0H14.653C12.913 0 11.55 1.352 11.55 3.009V6.009C11.55 7.666 12.913 9 14.653 9H17.803C19.543 9 21 7.666 21 6.009V3.009C21 1.352 19.543 0 17.803 0ZM7.35 6.009C7.35 6.56 6.832 7 6.253 7H3.103C2.97145 7.0031 2.84063 6.97967 2.71833 6.93112C2.59603 6.88256 2.48476 6.80988 2.39115 6.71739C2.29755 6.62491 2.22353 6.51452 2.17351 6.39282C2.12349 6.27111 2.09849 6.14058 2.1 6.009V3.009C2.09799 2.87645 2.12252 2.74483 2.17214 2.6219C2.22176 2.49897 2.29547 2.38721 2.38893 2.29319C2.48239 2.19918 2.59371 2.1248 2.71634 2.07445C2.83897 2.0241 2.97044 1.99878 3.103 2H6.253C6.833 2 7.35 2.458 7.35 3.009V6.009ZM6.253 0H3.103C1.363 0 0 1.352 0 3.009V6.009C0 7.666 1.363 9 3.103 9H6.253C7.993 9 9.45 7.666 9.45 6.009V3.009C9.45 1.352 7.993 0 6.253 0Z" fill="#444444"/>
</svg>
