<svg width="22" height="22" viewBox="0 0 22 22" fill="none" xmlns="http://www.w3.org/2000/svg">
<path d="M11 0C8.82441 0 6.69767 0.645138 4.88873 1.85383C3.07979 3.06253 1.66989 4.78049 0.83733 6.79048C0.0047661 8.80047 -0.213071 11.0122 0.211367 13.146C0.635804 15.2798 1.68345 17.2398 3.22183 18.7782C4.76021 20.3165 6.72022 21.3642 8.85401 21.7886C10.9878 22.2131 13.1995 21.9952 15.2095 21.1627C17.2195 20.3301 18.9375 18.9202 20.1462 17.1113C21.3549 15.3023 22 13.1756 22 11C21.9969 8.08356 20.837 5.28745 18.7748 3.22521C16.7126 1.16297 13.9164 0.0030651 11 0ZM1.1579 11C1.16204 8.49232 2.1228 6.0807 3.84416 4.25713C5.56552 2.43356 7.91778 1.33546 10.4211 1.18684V20.8132C7.91778 20.6645 5.56552 19.5664 3.84416 17.7429C2.1228 15.9193 1.16204 13.5077 1.1579 11Z" fill="#444444"/>
</svg>
