<svg width="24" height="20" viewBox="0 0 24 20" fill="none" xmlns="http://www.w3.org/2000/svg">
<path d="M17.2522 12.4406C16.5345 12.441 15.8343 12.6795 15.2462 13.1237C14.6581 13.568 14.2105 14.1965 13.9641 14.9244H0V17.5162H13.9641C14.2102 18.2443 14.6576 18.8731 15.2458 19.3174C15.8339 19.7617 16.5343 20 17.2521 20C17.9698 20 18.6702 19.7617 19.2583 19.3174C19.8465 18.8731 20.2939 18.2443 20.54 17.5162H24V14.9244H20.54C20.2936 14.1965 19.8461 13.568 19.258 13.1238C18.67 12.6795 17.9698 12.4411 17.2522 12.4406ZM17.2522 17.4082C17.0346 17.4082 16.8219 17.3385 16.641 17.208C16.4601 17.0775 16.3191 16.892 16.2359 16.6749C16.1526 16.4578 16.1308 16.219 16.1733 15.9886C16.2157 15.7581 16.3205 15.5465 16.4743 15.3803C16.6282 15.2142 16.8242 15.1011 17.0375 15.0552C17.2509 15.0094 17.4721 15.0329 17.6731 15.1228C17.8741 15.2127 18.0459 15.365 18.1668 15.5603C18.2876 15.7557 18.3521 15.9854 18.3521 16.2203C18.3522 16.3763 18.3238 16.5308 18.2686 16.675C18.2133 16.8192 18.1323 16.9502 18.0302 17.0605C17.928 17.1708 17.8067 17.2583 17.6732 17.318C17.5397 17.3776 17.3966 17.4083 17.2522 17.4082ZM10.0361 2.4838C9.79002 1.75568 9.34258 1.12687 8.75444 0.682581C8.1663 0.23829 7.4659 0 6.74814 0C6.03039 0 5.32999 0.23829 4.74185 0.682581C4.15371 1.12687 3.70627 1.75568 3.46016 2.4838H0V5.07559H3.46016C3.70627 5.80371 4.15371 6.43252 4.74185 6.87681C5.32999 7.3211 6.03039 7.55939 6.74814 7.55939C7.4659 7.55939 8.1663 7.3211 8.75444 6.87681C9.34258 6.43252 9.79002 5.80371 10.0361 5.07559H24V2.4838H10.0361ZM6.74805 4.9676C6.53049 4.9676 6.31781 4.89793 6.13692 4.7674C5.95603 4.63687 5.81504 4.45135 5.73178 4.23429C5.64853 4.01723 5.62674 3.77838 5.66919 3.54795C5.71163 3.31752 5.81639 3.10585 5.97023 2.93972C6.12407 2.77359 6.32007 2.66045 6.53345 2.61462C6.74683 2.56878 6.968 2.59231 7.169 2.68222C7.37 2.77213 7.5418 2.92438 7.66266 3.11973C7.78353 3.31508 7.84805 3.54475 7.84805 3.7797C7.84813 3.93572 7.81974 4.09023 7.76448 4.2344C7.70923 4.37856 7.62821 4.50955 7.52605 4.61987C7.42389 4.7302 7.30259 4.8177 7.1691 4.87736C7.0356 4.93703 6.89252 4.96769 6.74805 4.9676Z" fill="#444444"/>
</svg>
